<?xml version="1.0" encoding="UTF-8" standalone="no"?>
<!-- Created with Inkscape (http://www.inkscape.org/) -->

<svg
   width="64"
   height="64"
   viewBox="0 0 16.933333 16.933333"
   version="1.1"
   id="svg1"
   inkscape:version="1.3 (0e150ed6c4, 2023-07-21)"
   sodipodi:docname="pardus-lightdm-greeter-settings.svg"
   xml:space="preserve"
   xmlns:inkscape="http://www.inkscape.org/namespaces/inkscape"
   xmlns:sodipodi="http://sodipodi.sourceforge.net/DTD/sodipodi-0.dtd"
   xmlns="http://www.w3.org/2000/svg"
   xmlns:svg="http://www.w3.org/2000/svg"><sodipodi:namedview
     id="namedview1"
     pagecolor="#ffffff"
     bordercolor="#000000"
     borderopacity="0.25"
     inkscape:showpageshadow="2"
     inkscape:pageopacity="0.0"
     inkscape:pagecheckerboard="0"
     inkscape:deskcolor="#d1d1d1"
     inkscape:document-units="px"
     inkscape:zoom="1.1653672"
     inkscape:cx="-112.83997"
     inkscape:cy="244.98717"
     inkscape:window-width="1920"
     inkscape:window-height="1137"
     inkscape:window-x="0"
     inkscape:window-y="0"
     inkscape:window-maximized="1"
     inkscape:current-layer="layer1" /><defs
     id="defs1"><linearGradient
   id="SVGID_00000129901450951144020920000007753056098303935627_"
   gradientUnits="userSpaceOnUse"
   x1="-434.02811"
   y1="-74.135002"
   x2="-434.02811"
   y2="-49.8008"
   gradientTransform="matrix(1,0,0,-1,0,-121.5918)"><stop
     offset="0"
     style="stop-color:#27AFD9"
     id="stop80" /><stop
     offset="1"
     style="stop-color:#42BDD9"
     id="stop81" /></linearGradient>&#10;	&#10;	&#10;&#10;		&#10;		&#10;		&#10;		&#10;	</defs><g
     inkscape:label="Layer 1"
     inkscape:groupmode="layer"
     id="layer1"><g
       id="g1"
       transform="matrix(1.1031161,0,0,1.1031161,-0.36067129,-0.74022791)"
       style="stroke-width:0.906523"><path
         class="st6"
         d="m 14.565406,6.757343 -1.02718,-0.2246953 c -0.0642,-0.192596 -0.160495,-0.385192 -0.256793,-0.5777881 L 13.923418,5.0560782 C 14.244412,4.6066874 14.212313,3.9647006 13.795022,3.5474092 L 12.992538,2.7449258 C 12.767843,2.5202305 12.478948,2.391833 12.157956,2.391833 c -0.224695,0 -0.449392,0.064199 -0.641988,0.1925961 L 10.617187,3.1943166 C 10.424591,3.0980186 10.231995,3.0017205 10.039399,2.9375218 L 9.8468024,1.910343 C 9.7504984,1.3646543 9.2690148,0.94736279 8.7233257,0.94736279 L 7.5677494,0.91526386 c -0.545688,0 -1.0271779,0.38519204 -1.1555762,0.93088084 L 6.1874783,2.8733232 h -0.032102 c -0.032102,0 -0.032102,0 -0.064202,0 L 5.9627773,2.905422 C 5.8022802,2.9696211 5.6738832,3.0338194 5.5133862,3.0980181 L 4.6146111,2.4560317 C 4.422015,2.3276344 4.16522,2.2313364 3.9405246,2.2313364 c -0.3209934,0 -0.6098874,0.1283973 -0.8345827,0.3209934 L 2.3034583,3.3548132 c -0.385192,0.385192 -0.48149,1.0271789 -0.1604965,1.4765695 L 2.7528492,5.7301643 C 2.6565511,5.9227603 2.5602531,6.1153564 2.4960543,6.3079524 L 1.4688756,6.5005483 C 0.92318681,6.5968463 0.50589545,7.0783361 0.50589545,7.6240253 l -0.0320989,1.1555762 c 0,0.5456892 0.38519207,1.0592782 0.93088065,1.1555768 l 1.027179,0.2246947 c 0.064199,0.192596 0.1604966,0.385192 0.2567946,0.577788 l -0.6419871,0.898782 c -0.3209934,0.44939 -0.288894,1.091377 0.1283974,1.508668 l 0.8024834,0.802485 c 0.2246954,0.224694 0.5135895,0.353091 0.8345828,0.353091 0.2246954,0 0.4493907,-0.0642 0.6419867,-0.192596 l 0.8987811,-0.609887 c 0.192596,0.09631 0.3851921,0.192596 0.5777881,0.256796 l 0.192596,1.027178 c 0.096304,0.545689 0.5777881,0.96298 1.1234773,0.96298 l 1.1555762,0.0321 c 0.5456891,0 1.0271792,-0.385191 1.1555765,-0.93088 L 9.782604,13.819199 c 0,0 0,0 0.0321,0 0.0321,0 0.0321,0 0.064199,0 l 0.128398,-0.0321 c 0.160497,-0.0642 0.288895,-0.128397 0.44939,-0.192596 l 0.898782,0.641988 c 0.192596,0.128397 0.449391,0.224695 0.674087,0.224695 0.320993,0 0.609887,-0.128397 0.834582,-0.320993 l 0.802484,-0.802484 c 0.385192,-0.385193 0.48149,-1.027178 0.160496,-1.47657 l -0.609884,-0.898781 c 0.09629,-0.192597 0.192596,-0.385193 0.256796,-0.577789 l 1.027178,-0.192596 c 0.545688,-0.09629 0.962979,-0.5777883 0.962979,-1.1234774 l 0.0321,-1.1555762 c 0,-0.5456892 -0.385192,-1.027179 -0.930881,-1.1555764 z"
         id="path87"
         style="opacity:0.3;fill:#ffffff;stroke-width:0.239852;enable-background:new" /><path
         class="st15"
         d="M 13.167579,6.8681571 C 13.07169,6.5165648 12.911875,6.1969354 12.752061,5.877306 l 0.76711,-1.0867399 C 13.710949,4.5028996 13.678986,4.1193443 13.455245,3.8636408 L 12.656172,3.0645674 C 12.400468,2.8088638 12.016913,2.7769009 11.729247,2.9686785 L 10.610544,3.7038261 C 10.290915,3.5120485 9.9712854,3.3841967 9.6196931,3.256345 L 9.3959525,1.9778274 C 9.3320266,1.6262351 9.0443602,1.4024945 8.6927678,1.3705316 L 7.542102,1.3385686 c -0.3515923,0 -0.6392587,0.2237406 -0.7351476,0.5753329 L 6.519288,3.1924191 C 6.3914362,3.224382 6.2316215,3.2883079 6.1037698,3.3522338 v 0 C 5.8800292,3.4481226 5.6562886,3.5440114 5.464511,3.6399003 L 4.3777711,2.8727897 C 4.0901046,2.6810121 3.7065494,2.712975 3.4508458,2.9367156 L 3.0353276,3.3202709 2.6198094,3.7357891 C 2.3641059,3.9914926 2.332143,4.3750479 2.5239206,4.6627143 L 3.2590682,5.7814172 C 3.0672906,6.1010466 2.9394388,6.4206759 2.8115871,6.7722683 L 1.5330695,6.9960088 C 1.1814772,7.0599347 0.95773664,7.3476012 0.9257737,7.6991935 L 0.8938108,8.8498593 c 0,0.3515923 0.2237406,0.6392588 0.5753328,0.7351476 l 1.2785176,0.2876665 c 0.095889,0.3515926 0.2557035,0.6712216 0.4155182,0.9908516 l -0.7671105,1.08674 c -0.1917777,0.287666 -0.1598147,0.671221 0.063926,0.926925 l 0.8310364,0.76711 c 0.2557036,0.255704 0.6392588,0.287667 0.9269253,0.09589 l 1.1187028,-0.735147 c 0.3196294,0.191777 0.6392588,0.319629 0.9908512,0.447481 l 0.2237405,1.278517 c 0.063926,0.351593 0.3515924,0.575333 0.7031847,0.607296 l 1.1506658,0.03196 c 0.3515923,0 0.6392588,-0.22374 0.7351476,-0.575333 l 0.2876664,-1.278517 c 0.1278518,-0.03196 0.2876665,-0.09589 0.4155182,-0.159815 v 0 c 0.2237402,-0.09589 0.4474812,-0.191778 0.6392582,-0.287666 l 1.08674,0.76711 c 0.287666,0.191778 0.671222,0.159815 0.926925,-0.06393 l 0.415518,-0.383555 0.415519,-0.415518 c 0.255703,-0.255704 0.287666,-0.639259 0.09589,-0.926925 l -0.735148,-1.118703 c 0.191778,-0.31963 0.319629,-0.639259 0.447481,-0.9908513 l 1.278518,-0.223741 C 14.765727,9.6489267 14.989468,9.3612603 15.02143,9.009668 l 0.03196,-1.1506658 c 0,-0.3515923 -0.22374,-0.6392588 -0.575333,-0.7351476 z"
         id="path480"
         style="fill:#ffffff;stroke-width:0.239851" /><path
         class="st17"
         d="M 13.199542,6.8361942 C 13.103653,6.4846018 12.943838,6.1649724 12.784024,5.845343 l 0.76711,-1.0867399 C 13.742912,4.4709367 13.710949,4.0873814 13.487208,3.8316779 L 12.688135,3.0326044 C 12.432431,2.7769009 12.048876,2.744938 11.76121,2.9367156 L 10.642507,3.6718632 C 10.322878,3.4800856 10.003248,3.3522338 9.651656,3.224382 L 9.4279154,1.9458645 C 9.3639896,1.5942722 9.0763231,1.3705316 8.7247308,1.3385686 L 7.574065,1.3066057 c -0.3515924,0 -0.6392588,0.2237406 -0.7351476,0.5753329 L 6.5512509,3.1604562 C 6.4233992,3.1924191 6.2635845,3.256345 6.1357327,3.3202709 v 0 C 5.9119921,3.4161597 5.6882516,3.5120485 5.4964739,3.6079373 L 4.409734,2.8408268 C 4.1220676,2.6490491 3.7385123,2.6810121 3.4828088,2.9047527 L 3.0672906,3.2883079 2.6517724,3.7038261 C 2.3960689,3.9595296 2.3641059,4.3430849 2.5558835,4.6307514 L 3.2910311,5.7494542 C 3.0992535,6.0690836 2.9714018,6.388713 2.84355,6.7403053 L 1.5650324,6.9640459 C 1.2134401,7.0279718 0.98969958,7.3156382 0.95773664,7.6672306 l -0.0319629,1.1506658 c 0,0.3515923 0.22374056,0.6392588 0.57533286,0.7351476 l 1.2785175,0.2876664 c 0.095889,0.3515926 0.2557035,0.6712216 0.4155182,0.9908516 l -0.7671105,1.08674 c -0.1917776,0.287666 -0.1598147,0.671221 0.063926,0.926925 L 3.2910312,13.6443 c 0.2557036,0.255704 0.6392588,0.287667 0.9269253,0.09589 l 1.1187028,-0.735147 c 0.3196294,0.191777 0.6392588,0.319629 0.9908512,0.447481 l 0.2237405,1.278517 c 0.063926,0.351593 0.3515924,0.575333 0.7031847,0.607296 l 1.1506658,0.03196 c 0.3515923,0 0.6392588,-0.22374 0.7351476,-0.575333 l 0.2876664,-1.278517 c 0.1278518,-0.03196 0.2876665,-0.09589 0.4155182,-0.159815 v 0 c 0.2237403,-0.09589 0.4474813,-0.191778 0.6392583,-0.287666 l 1.08674,0.76711 c 0.287666,0.191778 0.671222,0.159815 0.926925,-0.06393 l 0.415518,-0.383555 0.415519,-0.415518 c 0.255703,-0.255704 0.287666,-0.639259 0.09589,-0.926925 l -0.735148,-1.118703 c 0.191778,-0.31963 0.319629,-0.639259 0.447481,-0.9908513 l 1.278518,-0.223741 C 14.765727,9.6489267 14.989468,9.3612603 15.02143,9.009668 l 0.03196,-1.1506658 c 0,-0.3515923 -0.22374,-0.6392588 -0.575333,-0.7351476 z"
         id="path481"
         style="opacity:0.3;fill:#bbd8e8;stroke-width:0.239851;enable-background:new" /><g
         id="g483"
         style="stroke-width:0.750403"
         transform="matrix(0.31962939,0,0,0.31962939,-119.9261,58.424378)">&#10;			<path
   class="st0"
   d="m 401.4,-134.2 v 0 l -3.6,-0.1 c -1.3,0 -2.3,-0.9 -2.6,-2.2 l -0.7,-3.8 c -0.9,-0.3 -1.9,-0.8 -2.8,-1.2 l -3.3,2.2 c -1.1,0.7 -2.5,0.5 -3.4,-0.4 l -2.5,-2.5 c -0.9,-0.9 -1,-2.3 -0.3,-3.4 l 2.3,-3.3 c -0.5,-0.9 -0.8,-1.8 -1.1,-2.8 l -3.8,-0.8 c -1.2,-0.3 -2.1,-1.4 -2.1,-2.6 l 0.1,-3.6 c 0,-1.3 0.9,-2.3 2.2,-2.6 l 3.8,-0.7 c 0.3,-0.9 0.8,-1.9 1.2,-2.8 l -2.2,-3.3 c -0.7,-1.1 -0.5,-2.5 0.4,-3.4 l 2.5,-2.5 c 0.9,-0.9 2.3,-1 3.4,-0.3 l 3.3,2.3 c 0.6,-0.3 1.2,-0.6 1.8,-0.8 l 0.4,-0.1 v 0 c 0.2,-0.1 0.5,-0.2 0.7,-0.3 l 0.8,-3.8 c 0.3,-1.2 1.4,-2.1 2.7,-2.1 l 3.6,0.1 c 1.3,0 2.3,0.9 2.6,2.2 l 0.7,3.8 c 0.9,0.3 1.9,0.8 2.8,1.2 l 3.3,-2.2 c 1.1,-0.7 2.5,-0.5 3.4,0.4 l 2.5,2.5 c 0.9,0.9 1,2.3 0.3,3.4 l -2.3,3.3 c 0.5,0.9 0.8,1.8 1.1,2.8 l 3.8,0.8 c 1.2,0.3 2.1,1.4 2.1,2.6 l -0.1,3.6 c 0,1.3 -0.9,2.3 -2.2,2.6 l -3.8,0.7 c -0.3,0.9 -0.8,1.9 -1.2,2.8 l 2.2,3.5 c 0.7,1.1 0.5,2.5 -0.4,3.4 l -2.5,2.5 c -0.9,0.9 -2.3,1 -3.4,0.3 l -3.3,-2.3 c -0.6,0.3 -1.2,0.6 -1.8,0.8 l -0.4,0.1 v 0 c -0.2,0.1 -0.5,0.2 -0.7,0.3 l -0.8,3.8 c -0.3,1.1 -1.4,1.9 -2.7,1.9 z m -9.6,-8.2 0.2,0.1 c 1,0.5 2,1 3.1,1.4 l 0.2,0.1 0.8,4.2 c 0.2,0.9 0.9,1.5 1.8,1.5 l 3.6,0.1 c 0.9,0 1.7,-0.6 1.9,-1.5 l 0.9,-4.2 0.2,-0.1 c 0.4,-0.1 0.8,-0.3 1.3,-0.4 l 0.4,-0.1 v 0 c 0.6,-0.2 1.1,-0.5 1.6,-0.7 l 0.2,-0.1 3.6,2.6 c 0.7,0.5 1.8,0.4 2.4,-0.2 l 2.5,-2.5 c 0.6,-0.6 0.8,-1.6 0.3,-2.4 l -2.4,-3.7 0.1,-0.2 c 0.5,-1 1,-2 1.4,-3.1 l 0.1,-0.2 4.2,-0.8 c 0.9,-0.2 1.5,-0.9 1.5,-1.8 l 0.1,-3.6 c 0,-0.9 -0.6,-1.7 -1.5,-1.9 l -4.2,-0.9 -0.1,-0.2 c -0.3,-1.1 -0.8,-2.1 -1.3,-3.1 l -0.1,-0.2 2.6,-3.6 c 0.5,-0.7 0.4,-1.8 -0.2,-2.4 l -2.5,-2.5 c -0.6,-0.6 -1.6,-0.8 -2.4,-0.3 l -3.7,2.4 -0.2,-0.1 c -1,-0.5 -2,-1 -3.1,-1.4 l -0.2,-0.1 -0.8,-4.2 c -0.2,-0.9 -0.9,-1.5 -1.8,-1.5 l -3.6,-0.1 c -0.9,0 -1.7,0.6 -1.9,1.5 l -0.9,4.2 -0.2,0.1 c -0.4,0.1 -0.8,0.3 -1.3,0.4 l -0.4,0.1 v 0 c -0.6,0.2 -1.1,0.5 -1.6,0.8 l -0.2,0.1 -3.6,-2.6 c -0.7,-0.5 -1.8,-0.4 -2.4,0.2 l -2.5,2.5 c -0.6,0.6 -0.8,1.6 -0.3,2.4 l 2.4,3.7 -0.1,0.2 c -0.5,1 -1,2 -1.4,3.1 l -0.1,0.2 -4.2,0.8 c -0.9,0.2 -1.5,0.9 -1.5,1.8 l -0.1,3.6 c 0,0.9 0.6,1.7 1.5,1.9 l 4.2,0.9 0.1,0.2 c 0.3,1.1 0.8,2.1 1.3,3.1 l 0.1,0.2 -2.6,3.6 c -0.5,0.7 -0.4,1.8 0.2,2.4 l 2.5,2.5 c 0.6,0.6 1.6,0.8 2.4,0.3 z"
   id="path482"
   style="fill:#2f3536;stroke-width:0.750403" />&#10;			<path
   class="st0"
   d="m 401.4,-133.6 v 0 l -3.6,-0.1 c -1.6,0 -2.9,-1.2 -3.2,-2.7 l -0.6,-3.5 c -0.7,-0.3 -1.5,-0.6 -2.2,-1 l -3,2 c -1.3,0.8 -3,0.7 -4.1,-0.5 l -2.5,-2.5 c -1.1,-1.1 -1.2,-2.9 -0.3,-4.2 l 2.1,-3 c -0.3,-0.7 -0.6,-1.5 -0.9,-2.2 l -3.4,-0.7 c -1.5,-0.3 -2.6,-1.7 -2.6,-3.3 l 0.1,-3.6 c 0,-1.6 1.2,-2.9 2.7,-3.2 l 3.4,-0.6 c 0.3,-0.7 0.6,-1.5 1,-2.2 l -2,-3 c -0.8,-1.3 -0.7,-3 0.5,-4.1 l 2.5,-2.5 c 1.1,-1.1 2.9,-1.2 4.2,-0.3 l 3,2.1 c 0.5,-0.2 1,-0.5 1.6,-0.7 l 0.8,-0.3 0.7,-3.4 c 0.3,-1.5 1.7,-2.6 3.3,-2.6 l 3.6,0.1 c 1.6,0 2.9,1.2 3.2,2.7 l 0.6,3.5 c 0.7,0.3 1.5,0.6 2.2,1 l 3,-2 c 1.3,-0.9 3,-0.7 4.1,0.5 l 2.5,2.5 c 1.1,1.1 1.2,2.9 0.3,4.2 l -2.1,3 c 0.3,0.7 0.6,1.5 0.9,2.2 l 3.4,0.7 c 1.5,0.3 2.6,1.7 2.6,3.3 l -0.1,3.6 c 0,1.6 -1.2,2.9 -2.7,3.2 l -3.4,0.6 c -0.3,0.7 -0.6,1.5 -1,2.2 l 2,3 c 0.8,1.3 0.7,3 -0.5,4.1 l -2.5,2.5 c -1.1,1.1 -2.9,1.2 -4.2,0.3 l -3,-2.1 c -0.5,0.2 -1,0.5 -1.6,0.7 l -0.8,0.3 -0.7,3.4 c -0.4,1.6 -1.7,2.6 -3.3,2.6 z m 0,-0.7 v 0.2 z m -9.7,-8.8 0.5,0.3 c 0.9,0.5 1.9,1 3,1.3 l 0.6,0.2 0.8,4.6 c 0.1,0.6 0.6,1 1.2,1 l 3.6,0.1 c 0.6,0 1.1,-0.4 1.3,-1 l 1,-4.6 0.6,-0.2 c 0.4,-0.1 0.8,-0.3 1.2,-0.4 l 0.8,-0.3 c 0.4,-0.2 0.8,-0.4 1.2,-0.6 l 0.5,-0.3 3.9,2.8 c 0.5,0.4 1.2,0.3 1.6,-0.1 l 2.5,-2.5 c 0.4,-0.4 0.5,-1.1 0.2,-1.6 l -2.6,-4 0.3,-0.5 c 0.5,-0.9 1,-1.9 1.3,-3 l 0.2,-0.6 4.6,-0.8 c 0.6,-0.1 1,-0.6 1,-1.2 l 0.1,-3.6 c 0,-0.6 -0.4,-1.1 -1,-1.3 l -4.6,-1 -0.2,-0.6 c -0.3,-1 -0.7,-2 -1.2,-3 l -0.3,-0.5 2.8,-3.9 c 0.4,-0.5 0.3,-1.2 -0.1,-1.6 l -2.5,-2.5 c -0.4,-0.4 -1.1,-0.5 -1.6,-0.2 l -4,2.6 -0.5,-0.3 c -0.9,-0.5 -1.9,-1 -3,-1.3 l -0.6,-0.2 -0.8,-4.6 c -0.1,-0.6 -0.6,-1 -1.2,-1 l -3.6,-0.1 c -0.6,0 -1.1,0.4 -1.3,1 l -1,4.6 -0.6,0.2 c -0.4,0.1 -0.8,0.3 -1.2,0.4 l -0.8,0.3 c -0.4,0.2 -0.7,0.3 -1.1,0.5 l -0.5,0.3 -3.9,-2.8 c -0.5,-0.4 -1.2,-0.3 -1.6,0.1 l -2.5,2.5 c -0.4,0.4 -0.5,1.1 -0.2,1.6 l 2.6,4 -0.3,0.5 c -0.5,0.9 -1,1.9 -1.3,3 l -0.2,0.6 -4.6,0.8 c -0.6,0.1 -1,0.6 -1,1.2 l -0.1,3.6 c 0,0.6 0.4,1.1 1,1.3 l 4.6,1 0.2,0.6 c 0.3,1 0.7,2 1.2,3 l 0.3,0.5 -2.8,3.9 c -0.4,0.5 -0.3,1.2 0.1,1.6 l 2.5,2.5 c 0.4,0.4 1.1,0.5 1.6,0.2 z"
   id="path483"
   style="fill:#2f3536;stroke-width:0.750403" />&#10;		</g><g
         id="g486"
         style="stroke-width:0.750403"
         transform="matrix(0.26473756,0.17910045,-0.17910045,0.26473756,-128.27618,-21.935552)">&#10;			<path
   class="st52"
   d="m 401.7,-151.4 c -1,0 -5.5,-1 -6.1,-1.3 -0.2,-0.1 -0.3,-0.4 -0.4,-0.6 0,-0.7 0.9,-5.4 1.1,-6 0.1,-0.1 1.9,-1.3 5.9,-4 l 6.6,-4.4 -0.4,-1.2 c -0.4,-1.2 -0.2,-2.8 0.3,-3.8 0.6,-1 0.8,-1.2 4.3,-3.6 2.9,-1.9 3.2,-2.1 3.8,-2.3 0.6,-0.2 1.1,-0.3 1.5,-0.3 0.3,0 0.6,0 1,0.1 1,0.2 1.5,0.4 3.1,1.7 2.9,2.3 4.6,4.8 5.6,8.5 0.5,1.9 0.5,2.5 0.3,3.5 -0.2,1 -0.6,1.8 -1.3,2.5 -0.6,0.6 -6.4,4.4 -7.2,4.8 -0.5,0.2 -1.1,0.3 -1.7,0.3 v 0 c -0.7,0 -1.4,-0.1 -1.9,-0.4 -0.4,-0.2 -1,-0.6 -1.6,-1.1 l -0.6,-0.4 -9.2,6.2 -3,2 z"
   id="path484"
   style="fill:#3881c3;stroke-width:0.750403" />&#10;			<path
   class="st36"
   d="m 418.6,-176.7 c -0.8,0 -1.5,0.4 -4.2,2.3 -3.5,2.3 -3.7,2.5 -3.8,3.7 0,0.5 0.3,1.8 0.4,2.1 0.3,1.2 0.3,1.2 0.3,1.5 0,0.2 -0.1,0.4 -0.2,0.4 -0.1,0 -0.9,0.7 -6.3,4.3 l -6.6,4.4 -0.5,3.6 3.6,0.7 3,-2 9.1,-6.1 v 0 l 0.2,-0.2 c 0.1,-0.1 0.2,-0.1 0.5,-0.2 0.1,0 0.1,0 0.2,0 0.2,0 0.5,0 1.1,0.6 1.3,1.2 1.9,1.4 2.3,1.5 0.2,0 0.4,0.1 0.6,0.1 0.8,0 1.3,-0.3 4.2,-2.3 l 0.3,-0.2 c 3.3,-2.2 3.8,-2.5 3.5,-4.2 -0.2,-1.7 -1.2,-4.2 -2.1,-5.6 -1,-1.4 -3.2,-3.5 -4.5,-4.2 -0.3,0 -0.6,-0.2 -1.1,-0.2 z"
   id="path485"
   style="fill:#bbd8e8;stroke-width:0.750403" />&#10;			<path
   class="st0"
   d="m 421.5,-170.4 c -0.1,-0.2 -0.5,-0.5 -0.8,-0.6 -0.5,-0.2 -0.7,-0.3 -1.2,-0.2 -0.4,0 -0.8,0.2 -1,0.3 -0.2,0.1 -0.5,0.5 -0.6,0.8 -0.2,0.5 -0.3,0.7 -0.2,1.2 0,0.4 0.2,0.8 0.3,1 0.1,0.2 0.5,0.5 0.8,0.6 0.5,0.2 0.7,0.3 1.2,0.2 0.4,0 0.8,-0.2 1,-0.3 0.2,-0.1 0.5,-0.5 0.6,-0.8 0.2,-0.5 0.3,-0.7 0.2,-1.2 0,-0.4 -0.1,-0.8 -0.3,-1 z"
   id="path486"
   style="fill:#2f3536;stroke-width:0.750403" />&#10;		</g></g></g></svg>

